<svg width="1100" height="102" viewBox="0 0 1100 102" fill="none" xmlns="http://www.w3.org/2000/svg">
<path d="M600 87.1059C600 94.2279 605.773 100 612.894 100H687.106C694.228 100 700 94.2271 700 87.1059V12.8941C700 5.77208 694.227 0 687.106 0H612.894C605.772 0 600 5.77286 600 12.8941V87.1059Z" fill="#563D7C"/>
<path d="M641.468 44.2336V30.0721H653.933C655.121 30.0721 656.265 30.171 657.368 30.3689C658.47 30.5668 659.445 30.9201 660.293 31.4289C661.141 31.9377 661.82 32.6444 662.328 33.5489C662.837 34.4534 663.092 35.6123 663.092 37.0257C663.092 39.5697 662.328 41.407 660.802 42.5376C659.276 43.6683 657.325 44.2336 654.951 44.2336H641.468ZM628.154 19.7266V80.2734H657.495C660.209 80.2734 662.851 79.9342 665.424 79.2558C667.996 78.5774 670.286 77.5316 672.292 76.1183C674.299 74.7049 675.896 72.8818 677.084 70.6487C678.271 68.4156 678.864 65.7727 678.864 62.7199C678.864 58.9322 677.946 55.6957 676.108 53.0104C674.271 50.3251 671.487 48.4453 667.756 47.3712C670.469 46.0709 672.519 44.4032 673.904 42.368C675.289 40.3328 675.981 37.7889 675.981 34.7361C675.981 31.9094 675.515 29.5351 674.582 27.6129C673.649 25.6908 672.335 24.1503 670.639 22.9913C668.943 21.8324 666.908 20.9986 664.533 20.4898C662.159 19.981 659.53 19.7266 656.647 19.7266H628.154ZM641.468 69.9279V53.3072H655.969C658.852 53.3072 661.17 53.9714 662.922 55.3C664.675 56.6285 665.551 58.8474 665.551 61.9567C665.551 63.5397 665.282 64.8399 664.745 65.8575C664.208 66.8751 663.487 67.6807 662.583 68.2743C661.678 68.8679 660.633 69.2919 659.445 69.5463C658.258 69.8007 657.014 69.9279 655.714 69.9279H641.468Z" fill="white"/>
<path d="M227 19.6523L220.623 91.9568L191.957 100L163.37 91.9682L157 19.6523H227Z" fill="#264DE4"/>
<path d="M215.163 87.3527L220.613 25.5652H192V93.8521L215.163 87.3527Z" fill="#2965F1"/>
<path d="M171.604 52.3861L172.389 61.2552H192V52.3861H171.604Z" fill="#EBEBEB"/>
<path d="M192 34.4346H191.97H170.026L170.822 43.3039H192V34.4346Z" fill="#EBEBEB"/>
<path d="M192 84.6483V75.4205L191.962 75.4309L182.202 72.7637L181.578 65.6901H176.835H172.781L174.009 79.616L191.96 84.6596L192 84.6483Z" fill="#EBEBEB"/>
<path d="M173.474 0H184.088V4.49219H177.913V8.98438H184.088V13.4766H173.474V0Z" fill="black"/>
<path d="M186.211 0H196.824V3.90625H190.649V4.6875H196.824V13.6719H186.211V9.57031H192.386V8.78906H186.211V0Z" fill="black"/>
<path d="M198.947 0H209.561V3.90625H203.386V4.6875H209.561V13.6719H198.947V9.57031H205.123V8.78906H198.947V0Z" fill="black"/>
<path d="M202.761 61.2553L201.744 72.758L191.97 75.4279V84.6553L209.935 79.616L210.067 78.1176L212.126 54.7678L212.34 52.3861L213.922 34.4346H191.97V43.3039H204.318L203.521 52.3861H191.97V61.2553H202.761Z" fill="white"/>
<path d="M21.1683 2H25.6756V6.45312H29.7986V2H34.306V15.4852H29.7988V10.9695H25.6758V15.4852H21.1685L21.1683 2Z" fill="black"/>
<path d="M40.2332 6.47187H36.2652V2H48.7105V6.47187H44.7408V15.4852H40.2334L40.2332 6.47187Z" fill="black"/>
<path d="M50.6857 2H55.3855L58.2766 6.73828L61.1646 2H65.8662V15.4852H61.3775V8.80117L58.2766 13.5959H58.199L55.0959 8.80117V15.4852H50.6857V2V2Z" fill="black"/>
<path d="M68.1094 2H72.618V11.0277H78.9564V15.4852H68.1094V2Z" fill="black"/>
<path d="M20.9228 93.9388L14.4554 21.3939H85.4889L79.0135 93.9443L49.9549 102L20.9228 93.9388Z" fill="#E34E26"/>
<path d="M49.972 27.3236V95.8377L73.4695 89.3244L79.0058 27.3236H49.972Z" fill="#EF662A"/>
<path d="M27.6877 36.222L30.0861 63.1285H60.925L59.89 74.6691L49.9607 77.3537L40.0502 74.6728L39.3875 67.2629H30.4564L31.7336 81.5473L49.9584 86.6092L68.2068 81.5473L70.6531 54.2322H38.2238L37.4098 45.1205H71.432H71.4596L72.2564 36.222H27.6877Z" fill="white"/>
<path d="M49.9721 36.222H27.6877L30.0861 63.1285H49.9721V54.2322H38.2238L37.4098 45.1205H49.9721V36.222Z" fill="#EBEBEB"/>
<path d="M49.972 77.3497L49.9607 77.3536L40.0502 74.6728L39.3875 67.2628H30.4564L31.7336 81.5472L49.9584 86.6091L49.972 86.6052V77.3497Z" fill="#EBEBEB"/>
<path d="M300 0H400V100H300V0Z" fill="#F7DF1E"/>
<path d="M326.294 83.5673L333.946 78.936C335.423 81.5536 336.766 83.7684 339.987 83.7684C343.075 83.7684 345.022 82.5605 345.022 77.8621V45.9097H354.419V77.9949C354.419 87.7282 348.714 92.1586 340.39 92.1586C332.872 92.1586 328.509 88.2651 326.294 83.5665" fill="black"/>
<path d="M359.524 82.5604L367.176 78.1301C369.19 81.4196 371.808 83.8359 376.439 83.8359C380.333 83.8359 382.816 81.8891 382.816 79.204C382.816 75.982 380.265 74.8407 375.969 72.9618L373.62 71.9542C366.84 69.0683 362.343 65.4435 362.343 57.791C362.343 50.7428 367.713 45.3724 376.104 45.3724C382.078 45.3724 386.374 47.4535 389.462 52.8908L382.145 57.5894C380.534 54.7032 378.789 53.5623 376.104 53.5623C373.352 53.5623 371.606 55.3075 371.606 57.5894C371.606 60.4088 373.352 61.5502 377.379 63.2956L379.728 64.3024C387.716 67.7261 392.214 71.2162 392.214 79.0697C392.214 87.5281 385.568 92.1594 376.641 92.1594C367.914 92.1594 362.276 87.9978 359.524 82.5604" fill="black"/>
<path d="M852 53.0859C852 47.2722 844.783 41.7626 833.717 38.346C836.27 26.969 835.136 17.9175 830.135 15.0196C828.982 14.3399 827.634 14.0179 826.162 14.0179V18.007C826.978 18.007 827.634 18.168 828.184 18.4721C830.596 19.8674 831.642 25.1802 830.826 32.0135C830.631 33.695 830.312 35.466 829.922 37.2727C826.446 36.414 822.651 35.7522 818.661 35.3228C816.267 32.0135 813.785 29.0083 811.284 26.3787C817.065 20.9585 822.492 17.9891 826.18 17.9891V14C821.304 14 814.919 17.5061 808.465 23.5881C802.01 17.5419 795.626 14.0716 790.749 14.0716V18.0606C794.42 18.0606 799.864 21.0122 805.645 26.3966C803.162 29.0262 800.68 32.0135 798.321 35.3228C794.313 35.7522 790.518 36.414 787.043 37.2906C786.635 35.5017 786.333 33.7666 786.12 32.103C785.287 25.2696 786.316 19.9568 788.71 18.5436C789.242 18.2216 789.933 18.0785 790.749 18.0785V14.0894C789.259 14.0894 787.912 14.4114 786.741 15.0912C781.758 17.9891 780.641 27.0227 783.212 38.3639C772.182 41.7984 765 47.2901 765 53.0859C765 58.8996 772.217 64.4092 783.283 67.8259C780.73 79.2028 781.864 88.2543 786.865 91.1522C788.018 91.832 789.366 92.154 790.855 92.154C795.732 92.154 802.116 88.6479 808.571 82.5658C815.026 88.6121 821.41 92.0824 826.287 92.0824C827.776 92.0824 829.124 91.7604 830.294 91.0807C835.277 88.1828 836.395 79.1492 833.823 67.808C844.818 64.3913 852 58.8817 852 53.0859V53.0859ZM828.911 41.1544C828.255 43.462 827.439 45.8412 826.517 48.2203C825.79 46.7892 825.028 45.3582 824.194 43.9271C823.378 42.4961 822.509 41.1008 821.64 39.7413C824.159 40.1169 826.588 40.582 828.911 41.1544ZM820.789 60.2055C819.406 62.6204 817.987 64.9101 816.515 67.0388C813.873 67.2713 811.195 67.3966 808.5 67.3966C805.822 67.3966 803.145 67.2713 800.52 67.0567C799.048 64.928 797.612 62.6562 796.228 60.2591C794.881 57.9158 793.657 55.5366 792.54 53.1396C793.639 50.7426 794.881 48.3455 796.211 46.0022C797.594 43.5872 799.013 41.2975 800.485 39.1688C803.127 38.9363 805.805 38.8111 808.5 38.8111C811.178 38.8111 813.855 38.9363 816.48 39.1509C817.952 41.2797 819.388 43.5515 820.772 45.9485C822.119 48.2919 823.343 50.671 824.46 53.068C823.343 55.4651 822.119 57.8621 820.789 60.2055ZM826.517 57.88C827.475 60.277 828.29 62.6741 828.964 64.9995C826.641 65.572 824.194 66.0549 821.658 66.4306C822.527 65.0532 823.396 63.64 824.212 62.1911C825.028 60.76 825.79 59.3111 826.517 57.88ZM808.535 76.9668C806.886 75.2495 805.237 73.3355 803.606 71.2426C805.202 71.3141 806.833 71.3678 808.482 71.3678C810.149 71.3678 811.798 71.332 813.412 71.2426C811.816 73.3355 810.167 75.2495 808.535 76.9668ZM795.342 66.4306C792.824 66.0549 790.394 65.5899 788.071 65.0174C788.727 62.7098 789.543 60.3307 790.465 57.9515C791.192 59.3826 791.955 60.8137 792.788 62.2447C793.622 63.6758 794.473 65.0711 795.342 66.4306ZM808.447 29.2051C810.096 30.9223 811.745 32.8364 813.377 34.9293C811.781 34.8578 810.149 34.8041 808.5 34.8041C806.833 34.8041 805.184 34.8399 803.57 34.9293C805.166 32.8364 806.815 30.9223 808.447 29.2051ZM795.324 39.7413C794.455 41.1187 793.586 42.5318 792.77 43.9808C791.955 45.4119 791.192 46.8429 790.465 48.274C789.508 45.8769 788.692 43.4799 788.018 41.1544C790.341 40.5999 792.788 40.1169 795.324 39.7413V39.7413ZM779.275 62.1374C772.998 59.4363 768.937 55.8944 768.937 53.0859C768.937 50.2775 772.998 46.7177 779.275 44.0344C780.8 43.3726 782.467 42.7823 784.188 42.2277C785.198 45.7338 786.528 49.3831 788.178 53.1217C786.546 56.8425 785.234 60.4738 784.241 63.962C782.485 63.4075 780.818 62.7993 779.275 62.1374ZM788.816 87.6998C786.404 86.3045 785.358 80.9917 786.174 74.1583C786.369 72.4768 786.688 70.7059 787.078 68.8992C790.554 69.7578 794.349 70.4197 798.339 70.849C800.733 74.1583 803.215 77.1636 805.716 79.7932C799.935 85.2133 794.508 88.1828 790.82 88.1828C790.022 88.1649 789.348 88.0039 788.816 87.6998V87.6998ZM830.88 74.0689C831.713 80.9022 830.684 86.2151 828.29 87.6282C827.758 87.9502 827.067 88.0933 826.251 88.0933C822.58 88.0933 817.136 85.1418 811.355 79.7574C813.838 77.1278 816.32 74.1405 818.679 70.8311C822.687 70.4018 826.482 69.7399 829.957 68.8634C830.365 70.6701 830.684 72.4053 830.88 74.0689V74.0689ZM837.707 62.1374C836.182 62.7993 834.515 63.3896 832.795 63.9441C831.784 60.438 830.454 56.7888 828.805 53.0502C830.436 49.3294 831.748 45.6981 832.742 42.2098C834.497 42.7644 836.164 43.3726 837.725 44.0344C844.002 46.7356 848.063 50.2775 848.063 53.0859C848.045 55.8944 843.985 59.4542 837.707 62.1374V62.1374Z" fill="#61DAFB"/>
<path d="M808.482 61.2609C812.958 61.2609 816.586 57.6009 816.586 53.086C816.586 48.5711 812.958 44.911 808.482 44.911C804.006 44.911 800.378 48.5711 800.378 53.086C800.378 57.6009 804.006 61.2609 808.482 61.2609Z" fill="#61DAFB"/>
<g clip-path="url(#clip0_11_136)">
<path fill-rule="evenodd" clip-rule="evenodd" d="M1091.3 39.9814L1099.66 40.022C1099.66 40.022 1084.11 58.6303 1082.84 60.1469C1082.42 60.638 1081.8 61.1677 1081.48 61.8241C1080.68 63.4747 1079.85 67.095 1079.85 67.095L1072.2 67.1285C1072.2 67.1285 1073.39 63.3549 1073.34 61.3449C1073.29 59.5888 1072.28 57.8352 1071.71 56.074C1071.13 54.2916 1070.35 50.8032 1070.35 50.8032H1078.22L1079.31 54.6366L1091.3 39.9814Z" fill="#1A1918"/>
<path fill-rule="evenodd" clip-rule="evenodd" d="M1075.45 43.9058C1077 44.7277 1077.94 49.2605 1077.94 49.2605C1077.94 49.2605 1069.86 49.3657 1065.47 49.3657H1061.67L1057.05 67.095H1050C1050 67.095 1054.39 47.8278 1055.43 44.3347C1055.76 43.204 1057.73 43.3978 1061.05 43.3978H1066.35C1069.77 43.3978 1073.77 43.0122 1075.45 43.9058Z" fill="#1A1918"/>
<path fill-rule="evenodd" clip-rule="evenodd" d="M1042.6 52.5403C1042.6 52.5403 1042.82 51.4022 1041.86 50.0845C1041.03 48.9609 1040.27 48.6998 1038.1 48.6399C1031.97 48.4698 1032.08 52.4804 1032.08 52.4804L1042.6 52.5403ZM1049.25 47.9476C1050.15 50.8083 1048.44 57.5308 1048.44 57.5308C1048.44 57.5308 1039.49 57.3989 1034.6 57.5308C1033.07 57.5717 1031.25 57.3847 1030.8 58.01C1030.16 58.8867 1031.03 60.2359 1031.77 60.8058C1032.62 61.4623 1034.27 61.5367 1034.87 61.6036C1038.84 62.0494 1047.16 61.7186 1047.16 61.7186L1045.72 67.3534C1045.72 67.3534 1033.96 67.8736 1028.08 66.6347C1026.92 66.3905 1025.83 65.897 1025.1 65.1972C1024.9 65.0058 1024.72 64.7447 1024.53 64.5195C1024.38 64.3395 1023.94 63.748 1023.74 63.2805C1022.4 60.1205 1023.9 54.0664 1025.37 50.8225C1025.54 50.4464 1025.75 49.9698 1025.98 49.5646C1026.26 49.0593 1026.5 48.4891 1026.72 48.1871C1026.88 47.9787 1027.06 47.8444 1027.22 47.6479C1027.4 47.4156 1027.61 47.1903 1027.81 46.9894C1028.35 46.4334 1028.97 46.0404 1029.71 45.552C1032.16 43.9322 1036.6 42.6744 1041.92 43.156C1043.93 43.338 1046.96 43.9704 1048.44 45.7914C1048.83 46.2778 1049.03 47.2431 1049.25 47.9476Z" fill="#1A1918"/>
<path fill-rule="evenodd" clip-rule="evenodd" d="M1016.89 43.3762L1023.73 43.3403C1023.73 43.3403 1019.92 59.3085 1017.97 67.095H1010.1C1004.6 67.095 999.701 67.6963 997.617 64.2198C995.595 60.8443 997.525 55.2931 998.431 51.5219C999.072 48.853 1000.42 43.3978 1000.42 43.3978L1007.51 43.3403C1007.51 43.3403 1005.51 51.8334 1004.67 56.074C1004.37 57.593 1003.76 59.0233 1004.4 60.1469C1005.01 61.2157 1005.87 61.2921 1008.47 61.3449C1009.3 61.3618 1012 61.3449 1012 61.3449L1016.89 43.3762Z" fill="#1A1918"/>
<path fill-rule="evenodd" clip-rule="evenodd" d="M984.861 54.876C985.577 52.6289 986.622 50.1923 986.489 48.1677C986.346 46.0021 984.289 44.0303 982.961 43.6159C978.964 42.3699 975.221 44.1118 973.734 45.5323C971.809 47.3726 971.158 49.5216 970.477 52.4804C969.969 54.6771 969.554 56.9963 970.477 58.7094C972.11 61.7379 977.205 61.0766 982.69 61.1054C983.504 59.1792 984.177 57.0156 984.861 54.876ZM994.36 46.0116C995.142 51.0284 992.143 56.5654 990.077 61.3807C992.184 61.5485 994.029 61.3546 994.162 61.4933C994.3 61.6733 992.751 67.2411 992.21 67.2553C990.539 67.2938 985 67.3344 982.69 67.3344C975.153 67.3344 968.102 67.768 964.506 64.4595C963.046 63.1154 962.036 60.8105 961.792 59.1887C961.385 56.4812 961.895 53.5008 962.606 51.0429C963.249 48.8242 964.074 46.7303 965.32 44.8136C968.487 39.9334 973.997 36.311 983.233 37.1471C985.024 37.3101 987.597 38.0025 989.203 38.824C989.315 38.8818 989.703 39.1548 989.792 39.2028C991.964 40.4224 993.942 43.3332 994.36 46.0116Z" fill="#1A1918"/>
<path fill-rule="evenodd" clip-rule="evenodd" d="M961.013 43.4048C960.557 45.2377 960.101 47.315 959.621 49.1262H952.021C952.61 47.1185 953.061 45.1227 953.65 43.3761C956.082 43.3761 958.343 43.4048 961.013 43.4048Z" fill="#1A1918"/>
<path fill-rule="evenodd" clip-rule="evenodd" d="M951.75 50.8031H959.078C958.12 55.4848 956.223 63.0362 954.736 68.2925C953.805 71.5821 953.183 73.9828 950.664 75.7196C950.439 75.8755 950.309 75.8014 950.122 75.9594C949.657 76.35 947.511 76.8029 946.322 76.9175C944.39 77.1022 942.205 76.9415 939.83 76.8986C940.452 74.8933 941.155 72.4855 941.708 70.6885C947.497 71.3068 947.644 66.4766 948.765 61.8241C949.413 59.1359 951.379 51.8814 951.75 50.8031Z" fill="#1A1918"/>
<path fill-rule="evenodd" clip-rule="evenodd" d="M934.652 63.022L934.495 63.3812C931.818 67.981 927.077 70.8035 920.314 70.928C917.152 70.9855 914.139 70.2694 912.172 69.4905C907.925 67.8062 904.352 64.6824 902.402 61.3448C899.603 56.5603 899.098 49.9048 904.917 44.9336C905.007 44.9336 904.211 46.0115 904.301 46.0115L904.141 46.4715C899.948 58.06 912.866 67.9908 925.424 66.8551C928.442 66.5822 932.291 65.1231 934.652 63.022Z" fill="#21609B"/>
<path fill-rule="evenodd" clip-rule="evenodd" d="M927.052 58.2301C930.212 58.2494 933.512 56.9459 935.466 55.1157C933.756 58.9468 928.806 61.4094 922.167 60.626C916.609 59.9696 911.314 55.0319 910.769 50.0843C910.37 46.4836 911.792 44.3346 914.134 41.7279C913.32 43.0913 913.016 44.1428 912.94 44.8135C912.05 52.6024 919.988 58.1895 927.052 58.2301Z" fill="#21609B"/>
<path fill-rule="evenodd" clip-rule="evenodd" d="M935.149 48.5559C934.657 49.5503 931.83 51.4285 930.581 51.6632C925.636 52.593 922.469 50.523 920.81 48.1677C920.564 47.8156 920.108 46.855 920.026 46.6105C919.383 44.6796 919.679 41.759 921.598 40.2472C921.02 41.6846 920.935 43.3544 921.239 44.4398C921.424 45.0963 921.985 46.2418 922.548 46.9626C923.571 48.2756 924.219 48.5945 925.533 49.2916C926.125 49.6054 926.759 49.8571 927.034 49.9264C928.279 50.2498 930.909 51.1028 935.149 48.5559Z" fill="#21609B"/>
</g>
<path d="M547.987 61.1073C543.721 61.1289 540.028 62.0469 536.93 63.4138C535.787 61.3851 534.643 59.6125 534.453 58.2888C534.238 56.7513 533.976 55.8115 534.238 53.9752C534.5 52.1385 535.691 49.5333 535.691 49.3198C535.667 49.1276 535.429 48.188 532.975 48.1667C530.521 48.1453 528.4 48.5938 528.162 49.1703C527.923 49.7469 527.447 51.0708 527.137 52.4375C526.708 54.4448 522.229 61.5557 519.679 65.2927C518.845 63.8406 518.13 62.5594 517.987 61.5342C517.773 59.9969 517.51 59.0571 517.773 57.2208C518.035 55.3842 519.226 52.7792 519.226 52.5656C519.202 52.3734 518.964 51.4339 516.51 51.4125C514.055 51.3911 511.935 51.8396 511.697 52.4161C511.458 52.9927 511.196 54.3594 510.672 55.6833C510.171 57.0073 504.214 68.8802 502.666 71.9766C501.879 73.5568 501.189 74.8167 500.688 75.6708C500.188 76.525 500.664 75.7349 500.616 75.8203C500.187 76.5464 499.949 76.9521 499.949 76.9521V76.9737C499.616 77.5075 499.258 78.0198 499.091 78.0198C498.972 78.0198 498.734 76.5891 499.139 74.6247C500.02 70.5031 502.165 64.0757 502.141 63.8408C502.141 63.7341 502.546 62.6021 500.759 62.0257C499.02 61.4492 498.4 62.4101 498.257 62.4101C498.114 62.4101 497.995 62.7518 497.995 62.7518C497.995 62.7518 499.925 55.5129 494.302 55.5129C490.775 55.5129 485.914 58.9509 483.508 62.09C481.983 62.8374 478.742 64.4174 475.311 66.1046C474 66.7452 472.642 67.4286 471.355 68.0478L471.093 67.7911C464.279 61.2781 451.673 56.6656 452.198 47.9104C452.388 44.7287 453.627 36.3365 476.407 26.1719C495.065 17.8438 510.005 20.1287 512.602 25.2109C516.295 32.4714 504.62 45.9672 485.224 47.9104C477.837 48.6578 473.953 46.0953 472.976 45.1344C471.951 44.1307 471.808 44.088 471.427 44.2802C470.808 44.5792 471.189 45.476 471.427 46.0099C471.999 47.3552 474.382 49.7469 478.433 50.9427C481.983 51.9891 490.656 52.5656 501.141 48.9354C512.888 44.8568 522.062 33.5391 519.369 24.0792C516.629 14.4484 498.806 11.288 481.959 16.6479C471.927 19.8511 461.062 24.8479 453.246 31.4037C443.953 39.1766 442.476 45.9672 443.095 48.7859C445.264 58.8438 460.728 65.3995 466.923 70.2469C466.614 70.3961 466.328 70.5456 466.066 70.674C462.968 72.0404 451.173 77.5714 448.218 83.4222C444.882 90.042 448.743 94.8042 451.316 95.4448C459.275 97.4307 467.424 93.8646 471.832 87.9922C476.216 82.1198 475.692 74.4964 473.667 71.0156L473.595 70.8875L476.026 69.6063C477.598 68.7734 479.147 68.0047 480.505 67.3425C479.743 69.2003 479.195 71.3998 478.909 74.6029C478.575 78.3615 480.291 83.23 482.555 85.1519C483.555 85.9845 484.747 86.006 485.486 86.006C488.107 86.006 489.298 84.0626 490.609 81.7352C492.229 78.8951 493.659 75.6066 493.659 75.6066C493.659 75.6066 491.871 84.5112 496.756 84.5112C498.543 84.5112 500.33 82.4399 501.141 81.3722V81.3935C501.141 81.3935 501.188 81.3295 501.284 81.18C501.384 81.0475 501.479 80.9123 501.57 80.7745V80.7318C502.284 79.6214 503.881 77.0802 506.264 72.8734C509.337 67.4495 512.292 60.6589 512.292 60.6589C512.292 60.6589 512.578 62.3245 513.46 65.0578C513.984 66.6809 515.127 68.4531 516.009 70.1828C515.294 71.0797 514.865 71.5924 514.865 71.5924L514.889 71.6138C514.318 72.2971 513.674 73.0233 513.007 73.7492C510.577 76.3544 507.67 79.3228 507.288 80.177C506.836 81.1804 506.931 81.9278 507.812 82.526C508.456 82.953 509.6 83.0382 510.815 82.953C513.007 82.8247 514.532 82.3338 515.295 82.0346C516.486 81.6502 517.844 81.0737 519.155 80.2195C521.537 78.6395 522.991 76.3973 522.848 73.4077C522.777 71.7634 522.181 70.1405 521.442 68.603C521.657 68.3254 521.871 68.0476 522.086 67.7489C525.85 62.8158 528.757 57.3921 528.757 57.3921C528.757 57.3921 529.043 59.0577 529.925 61.7911C530.377 63.1791 531.283 64.6954 532.093 66.1902C528.567 68.7741 526.351 71.7637 525.588 73.7282C524.182 77.3585 525.279 79.0027 527.352 79.3871C528.281 79.5579 529.615 79.1736 530.616 78.7892C531.855 78.4262 533.356 77.8067 534.738 76.8887C537.121 75.3085 539.409 73.109 539.289 70.1408C539.218 68.7741 538.813 67.4288 538.265 66.1475C541.267 65.0371 545.151 64.3965 550.084 64.9303C560.687 66.0407 562.784 71.9772 562.379 74.4543C561.974 76.9316 559.758 78.298 559.019 78.7251C558.28 79.1308 558.042 79.2805 558.114 79.5793C558.209 80.0279 558.543 80.0064 559.186 79.9212C560.068 79.7928 564.762 77.8925 564.952 73.3229C565.238 67.4497 559.019 61.0434 547.987 61.1073V61.1073ZM466.209 85.8141C462.706 89.2521 457.773 90.5547 455.677 89.4443C453.413 88.2698 454.294 83.2089 458.607 79.5573C461.229 77.3365 464.636 75.2865 466.876 74.0266C467.376 73.749 468.139 73.3434 469.044 72.8521C469.187 72.7669 469.282 72.724 469.282 72.724C469.449 72.6385 469.64 72.5318 469.83 72.425C471.427 77.6354 469.902 82.2052 466.209 85.8141V85.8141ZM491.824 70.2042C490.609 72.8734 488.035 79.7281 486.486 79.3438C485.152 79.0234 484.342 73.8344 486.224 68.7094C487.177 66.1253 489.202 63.0505 490.394 61.8545C492.324 59.9326 494.421 59.292 494.945 60.0821C495.565 61.1073 492.586 68.5385 491.824 70.2042ZM512.959 79.2583C512.435 79.4934 511.959 79.6641 511.744 79.5362C511.577 79.4507 511.958 79.1304 511.958 79.1304C511.958 79.1304 514.603 76.5893 515.652 75.4148C516.247 74.7317 516.962 73.9416 517.725 73.0445V73.3007C517.725 76.3755 514.437 78.4255 512.959 79.2583ZM529.258 75.9271C528.876 75.6708 528.924 74.8807 530.211 72.4036C530.711 71.4214 531.855 69.7771 533.833 68.2182C534.071 68.8589 534.214 69.4779 534.19 70.0547C534.166 73.8984 531.116 75.3292 529.258 75.9271Z" fill="#CF649A"/>
<defs>
<clipPath id="clip0_11_136">
<rect width="200" height="40" fill="white" transform="translate(900 37)"/>
</clipPath>
</defs>
</svg>
