<svg width="825" height="104" viewBox="0 0 825 104" fill="none" xmlns="http://www.w3.org/2000/svg">
<path d="M28.6925 34.1333H51.6274V35.9562H30.7948V49.6759H50.385V51.4988H30.7948V66.5617H51.8663V68.3845H28.6925V34.1333ZM53.6819 34.1333H56.1188L66.9173 49.1962L77.9547 34.1333L92.9674 15L68.3029 50.7792L81.0127 68.3845H78.4803L66.9173 52.3623L55.3065 68.3845H52.8219L65.6272 50.7792L53.6819 34.1333ZM81.9205 35.9562V34.1333H108.057V35.9562H96.0159V68.3845H93.9135V35.9562H81.9205ZM0 34.1333H2.62795L38.8659 88.3599L23.8905 68.3845L2.19793 36.7237L2.10236 68.3845H0V34.1333ZM107.845 66.0115C107.415 66.0115 107.093 65.6787 107.093 65.2487C107.093 64.8186 107.415 64.4858 107.845 64.4858C108.28 64.4858 108.597 64.8186 108.597 65.2487C108.597 65.6787 108.28 66.0115 107.845 66.0115ZM109.911 64.0045H111.036C111.051 64.6138 111.496 65.0234 112.15 65.0234C112.882 65.0234 113.296 64.583 113.296 63.7587V58.5362H114.441V63.7638C114.441 65.2487 113.582 66.1037 112.161 66.1037C110.826 66.1037 109.911 65.2743 109.911 64.0045ZM115.939 63.9379H117.075C117.172 64.6394 117.857 65.0848 118.844 65.0848C119.764 65.0848 120.439 64.6086 120.439 63.9533C120.439 63.3901 120.01 63.0521 119.033 62.8217L118.082 62.5913C116.747 62.279 116.139 61.6339 116.139 60.5484C116.139 59.2325 117.213 58.357 118.823 58.357C120.322 58.357 121.416 59.2325 121.482 60.4767H120.368C120.26 59.7958 119.667 59.3708 118.808 59.3708C117.903 59.3708 117.3 59.806 117.3 60.4716C117.3 60.999 117.688 61.3011 118.65 61.5263L119.463 61.726C120.976 62.0793 121.6 62.6937 121.6 63.8048C121.6 65.2179 120.506 66.1037 118.757 66.1037C117.121 66.1037 116.021 65.2589 115.939 63.9379Z" fill="black"/>
<path d="M277 28C272.45 28 268.65 31.1 267.6 35.3H254.05C248.75 35.3 244.4 39.6 244.4 44.95C244.4 47.6 242.25 49.75 239.6 49.75H237.65C236.6 45.55 232.75 42.45 228.25 42.45C223.7 42.45 219.9 45.55 218.85 49.75H211.1C210.05 45.55 206.2 42.45 201.7 42.45C196.35 42.45 192 46.8 192 52.15C192 57.5 196.35 61.85 201.7 61.85C206.25 61.85 210.05 58.75 211.1 54.55H218.85C219.9 58.75 223.75 61.85 228.25 61.85C232.75 61.85 236.55 58.8 237.65 54.6H239.6C242.25 54.6 244.4 56.75 244.4 59.4C244.4 64.7 248.7 69.05 254.05 69.05H257.2C258.25 73.25 262.1 76.35 266.6 76.35C271.95 76.35 276.3 72 276.3 66.65C276.3 61.3 271.95 56.95 266.6 56.95C262.05 56.95 258.25 60.05 257.2 64.25H254.05C251.4 64.25 249.25 62.1 249.25 59.45C249.25 56.55 247.95 53.95 245.9 52.2C247.95 50.45 249.25 47.85 249.25 44.95C249.25 42.3 251.4 40.15 254.05 40.15H267.6C268.65 44.35 272.5 47.45 277 47.45C282.35 47.45 286.7 43.1 286.7 37.75C286.75 32.4 282.35 28 277 28ZM201.7 57.1C199 57.1 196.8 54.9 196.8 52.2C196.8 49.5 199 47.3 201.7 47.3C204.4 47.3 206.6 49.5 206.6 52.2C206.65 54.9 204.45 57.1 201.7 57.1ZM228.25 57.1C225.55 57.1 223.35 54.9 223.35 52.2C223.35 49.5 225.55 47.3 228.25 47.3C230.95 47.3 233.15 49.5 233.15 52.2C233.2 54.9 231 57.1 228.25 57.1ZM266.6 61.8C269.3 61.8 271.5 64 271.5 66.7C271.5 69.4 269.3 71.6 266.6 71.6C263.9 71.6 261.7 69.4 261.7 66.7C261.7 64 263.9 61.8 266.6 61.8ZM277 42.65C274.3 42.65 272.1 40.45 272.1 37.75C272.1 35.05 274.3 32.85 277 32.85C279.7 32.85 281.9 35.05 281.9 37.75C281.9 40.45 279.7 42.65 277 42.65Z" fill="#ED6C5D"/>
<path d="M293.414 49.8737C293.414 49.2737 293.114 49.0237 292.564 49.0237H290.964V45.7737H294.614C296.314 45.7737 297.114 46.5237 297.114 47.9737V48.7237C297.114 49.3737 297.014 49.8737 297.014 49.8737H297.114C297.914 48.1737 300.214 45.3737 304.514 45.3737C309.214 45.3737 311.314 47.9237 311.314 52.9237V61.4737C311.314 62.0737 311.614 62.3237 312.164 62.3237H313.764V65.5737H310.014C308.264 65.5737 307.514 64.8237 307.514 63.0737V53.8237C307.514 51.0737 306.964 48.8737 303.814 48.8737C300.764 48.8737 298.364 50.8737 297.564 53.7237C297.314 54.5237 297.214 55.4237 297.214 56.3737V65.6237H293.414V49.8737Z" fill="#394D5B"/>
<path d="M321.664 50.5737V50.4737C321.664 50.4737 318.264 48.6737 318.264 44.8737C318.264 41.0737 321.314 37.5237 326.814 37.5237C332.064 37.5237 335.414 40.6737 335.414 44.9737C335.414 49.0237 332.114 51.5237 332.114 51.5237V51.6237C334.614 53.0737 336.214 54.9737 336.214 57.9237C336.214 62.2237 332.314 65.9737 326.714 65.9737C321.514 65.9737 317.114 62.7237 317.114 57.6237C317.114 53.0737 321.664 50.5737 321.664 50.5737ZM326.714 62.4237C329.614 62.4237 332.264 60.5237 332.264 57.7737C332.264 55.3737 330.214 54.3237 327.614 53.2737C326.564 52.8237 325.064 52.2737 324.764 52.2737C323.814 52.2737 321.014 54.5237 321.014 57.4737C321.064 60.4737 323.714 62.4237 326.714 62.4237ZM328.764 49.9237C329.714 49.9237 331.664 47.6237 331.664 45.1737C331.664 42.6237 329.614 41.0237 326.814 41.0237C323.814 41.0237 322.064 42.7237 322.064 44.9237C322.064 47.3237 324.114 48.2737 326.564 49.2737C327.164 49.5237 328.264 49.9237 328.764 49.9237Z" fill="#394D5B"/>
<path d="M342.214 49.8737C342.214 49.2737 341.914 49.0237 341.364 49.0237H339.764V45.7737H343.414C345.114 45.7737 345.914 46.5237 345.914 47.9737V48.7237C345.914 49.3737 345.814 49.8737 345.814 49.8737H345.914C346.714 48.1737 349.014 45.3737 353.314 45.3737C358.014 45.3737 360.114 47.9237 360.114 52.9237V61.4737C360.114 62.0737 360.414 62.3237 360.964 62.3237H362.564V65.5737H358.814C357.064 65.5737 356.314 64.8237 356.314 63.0737V53.8237C356.314 51.0737 355.764 48.8737 352.614 48.8737C349.564 48.8737 347.164 50.8737 346.364 53.7237C346.114 54.5237 346.014 55.4237 346.014 56.3737V65.6237H342.214V49.8737Z" fill="#394D5B"/>
<path d="M367.014 61.4736H370.864V65.4736H367.014V61.4736Z" fill="#394D5B"/>
<path d="M376.114 49.8737C376.114 49.2737 375.814 49.0237 375.264 49.0237H373.664V45.7737H377.364C379.114 45.7737 379.864 46.5237 379.864 48.2737V61.4237C379.864 62.0237 380.164 62.2737 380.714 62.2737H382.314V65.5237H378.614C376.864 65.5237 376.114 64.7737 376.114 63.0237V49.8737Z" fill="#394D5B"/>
<path d="M396.314 45.2737C402.214 45.2737 406.964 49.6237 406.964 55.5737C406.964 61.5737 402.214 65.9237 396.314 65.9237C390.414 65.9237 385.714 61.5737 385.714 55.5737C385.714 49.6237 390.414 45.2737 396.314 45.2737ZM396.314 62.6737C400.064 62.6737 403.114 59.7237 403.114 55.5737C403.114 51.4737 400.064 48.5737 396.314 48.5737C392.614 48.5737 389.564 51.4737 389.564 55.5737C389.564 59.7237 392.614 62.6737 396.314 62.6737Z" fill="#394D5B"/>
<path d="M377.85 44.6001C375.9 44.6001 374.35 43.0001 374.35 41.1001C374.35 39.2001 375.95 37.6001 377.85 37.6001C379.75 37.6001 381.35 39.2001 381.35 41.1001C381.35 43.0001 379.75 44.6001 377.85 44.6001ZM377.85 39.2501C376.85 39.2501 376 40.0501 376 41.1001C376 42.1501 376.8 42.9501 377.85 42.9501C378.9 42.9501 379.7 42.1501 379.7 41.1001C379.7 40.0501 378.85 39.2501 377.85 39.2501Z" fill="#ED6C5D"/>
<g clip-path="url(#clip0_203_38)">
<path d="M571.669 103.676C571.11 103.676 570.555 103.529 570.066 103.247L564.962 100.226C564.2 99.7994 564.572 99.6486 564.823 99.5617C565.839 99.2058 566.046 99.1255 567.131 98.5094C567.245 98.4443 567.394 98.4673 567.511 98.5362L571.431 100.863C571.573 100.939 571.774 100.939 571.905 100.863L587.193 92.0385C587.334 91.9581 587.426 91.7936 587.426 91.6252V73.9843C587.426 73.8083 587.334 73.6514 587.19 73.5634L571.908 64.7468C571.767 64.6626 571.579 64.6626 571.438 64.7468L556.159 73.5634C556.011 73.6476 555.917 73.8121 555.917 73.9805V91.6214C555.917 91.7898 556.009 91.9505 556.154 92.0308L560.341 94.4493C562.614 95.5858 564.003 94.2465 564.003 92.8995V75.4882C564.003 75.2395 564.198 75.0481 564.447 75.0481H566.383C566.624 75.0481 566.823 75.2395 566.823 75.4882V92.9072C566.823 95.9379 565.17 97.679 562.296 97.679C561.412 97.679 560.716 97.679 558.772 96.7223L554.761 94.411C553.77 93.837 553.158 92.7656 553.158 91.6214V73.9805C553.158 72.8325 553.77 71.761 554.761 71.1947L570.064 62.3666C571.032 61.8194 572.318 61.8194 573.279 62.3666L588.562 71.1985C589.549 71.7687 590.166 72.8363 590.166 73.9843V91.6252C590.166 92.7694 589.549 93.837 588.562 94.411L573.279 103.239C572.789 103.522 572.234 103.668 571.667 103.668" fill="#689F63"/>
<path d="M576.391 91.5199C569.702 91.5199 568.3 88.4494 568.3 85.8741C568.3 85.6292 568.497 85.434 568.742 85.434H570.717C570.935 85.434 571.119 85.5928 571.153 85.8083C571.452 87.8203 572.339 88.8351 576.384 88.8351C579.606 88.8351 580.976 88.1073 580.976 86.3987C580.976 85.4153 580.586 84.6844 575.581 84.1945C571.394 83.7813 568.807 82.859 568.807 79.5107C568.807 76.4264 571.41 74.5896 575.768 74.5896C580.662 74.5896 583.089 76.2887 583.395 79.9393C583.406 80.0656 583.36 80.188 583.276 80.2799C583.192 80.3679 583.073 80.4215 582.951 80.4215H580.965C580.758 80.4215 580.578 80.276 580.536 80.0771C580.058 77.9609 578.902 77.2836 575.76 77.2836C572.244 77.2836 571.834 78.5081 571.834 79.4265C571.834 80.5401 572.316 80.8654 577.062 81.4929C581.761 82.1167 583.992 82.9968 583.992 86.2992C583.992 89.6284 581.213 91.5379 576.369 91.5379M594.989 72.8294H595.502C595.923 72.8294 596.003 72.5347 596.003 72.3625C596.003 71.911 595.694 71.911 595.521 71.911H594.993L594.989 72.8294ZM594.366 71.3829H595.502C595.893 71.3829 596.658 71.3829 596.658 72.2554C596.658 72.8638 596.268 72.9901 596.034 73.0666C596.489 73.0972 596.52 73.3957 596.581 73.8166C596.612 74.0807 596.662 74.5361 596.754 74.6891H596.053C596.034 74.5361 595.927 73.6942 595.927 73.6483C595.881 73.4608 595.816 73.3689 595.583 73.3689H595.005V74.6929H594.366V71.3829ZM593 73.0284C593 74.3983 594.105 75.508 595.464 75.508C596.834 75.508 597.94 74.3753 597.94 73.0284C597.94 71.6546 596.819 70.564 595.46 70.564C594.121 70.564 592.996 71.6393 592.996 73.0245M598.414 73.036C598.414 74.6585 597.086 75.9825 595.468 75.9825C593.861 75.9825 592.521 74.6738 592.521 73.036C592.521 71.3676 593.891 70.0895 595.468 70.0895C597.056 70.0895 598.41 71.3714 598.41 73.036" fill="#689F63"/>
<path fill-rule="evenodd" clip-rule="evenodd" d="M524.329 34.6503C524.329 33.9462 523.958 33.2995 523.35 32.9494L507.142 23.6238C506.868 23.4631 506.562 23.3789 506.251 23.3674H506.084C505.773 23.3789 505.466 23.4631 505.188 23.6238L488.981 32.9494C488.377 33.3014 488 33.9481 488 34.6522L488.036 59.7704C488.036 60.1187 488.216 60.4439 488.522 60.6161C488.82 60.7998 489.195 60.7998 489.494 60.6161L499.129 55.0981C499.738 54.7361 500.109 54.0963 500.109 53.399V41.6646C500.109 40.9643 500.48 40.3176 501.087 39.9694L505.189 37.6068C505.494 37.4308 505.828 37.3435 506.169 37.3435C506.504 37.3435 506.846 37.43 507.142 37.6064L511.242 39.9682C511.849 40.3165 512.222 40.9632 512.222 41.6634V53.3971C512.222 54.0936 512.598 54.7365 513.204 55.0962L522.833 60.6104C523.135 60.7902 523.511 60.7902 523.813 60.6104C524.109 60.4382 524.298 60.1129 524.298 59.7647L524.329 34.6503ZM600.812 47.7283C600.812 47.9032 600.719 48.0651 600.567 48.1515L595 51.3606C594.849 51.4474 594.662 51.4474 594.511 51.3606L588.943 48.1515C588.79 48.0647 588.699 47.9028 588.699 47.7283V41.3011C588.699 41.1258 588.79 40.9643 588.94 40.8763L594.504 37.6619C594.657 37.5739 594.844 37.5739 594.997 37.6619L600.565 40.8763C600.718 40.9643 600.81 41.1258 600.81 41.3011L600.812 47.7283ZM602.316 0.123901C602.012 -0.0452374 601.642 -0.0406454 601.342 0.134233C601.044 0.310259 600.859 0.631699 600.859 0.979925V25.8532C600.859 26.0981 600.729 26.3239 600.517 26.4463C600.307 26.5688 600.045 26.5688 599.832 26.4463L595.772 24.1079C595.168 23.7581 594.423 23.7581 593.816 24.1079L577.602 33.4652C576.997 33.8134 576.623 34.4601 576.623 35.1566V53.8766C576.623 54.5769 576.997 55.2198 577.602 55.5718L593.816 64.9357C594.421 65.2839 595.167 65.2839 595.774 64.9357L611.988 55.568C612.592 55.2159 612.967 54.5731 612.967 53.8728V7.21815C612.967 6.50792 612.581 5.85471 611.961 5.50763L602.316 0.123901ZM656.307 41.1319C656.91 40.7822 657.28 40.1362 657.28 39.4398V34.9029C657.28 34.2049 656.909 33.5609 656.306 33.2096L640.195 23.8572C639.587 23.5052 638.841 23.5052 638.232 23.8572L622.023 33.2134C621.414 33.5655 621.043 34.2083 621.043 34.9086V53.621C621.043 54.3251 621.422 54.9756 622.03 55.3239L638.137 64.504C638.73 64.8446 639.457 64.8484 640.058 64.5155L649.8 59.1008C650.106 58.9286 650.302 58.6033 650.302 58.2513C650.302 57.8992 650.114 57.5701 649.808 57.3979L633.499 48.0379C633.193 47.8657 633.005 47.5404 633.005 47.1922V41.3221C633.005 40.9716 633.189 40.6486 633.495 40.4741L638.569 37.5467C638.871 37.3707 639.243 37.3707 639.545 37.5467L644.623 40.4741C644.925 40.6463 645.113 40.9716 645.113 41.3198V45.9348C645.113 46.283 645.3 46.6083 645.602 46.7843C645.905 46.9565 646.28 46.9565 646.582 46.7805L656.307 41.1319Z" fill="#333333"/>
<path fill-rule="evenodd" clip-rule="evenodd" d="M638.976 40.2565C639.091 40.1888 639.235 40.1888 639.352 40.2565L642.463 42.0512C642.579 42.1185 642.65 42.2425 642.65 42.3765V45.9697C642.65 46.1036 642.579 46.2276 642.463 46.295L639.352 48.0897C639.235 48.1574 639.091 48.1574 638.976 48.0897L635.867 46.295C635.749 46.2276 635.676 46.1036 635.676 45.9697V42.3765C635.676 42.2425 635.745 42.1185 635.864 42.0512L638.976 40.2565Z" fill="#689F63"/>
<mask id="mask0_203_38" style="mask-type:luminance" maskUnits="userSpaceOnUse" x="532" y="23" width="37" height="42">
<path d="M549.504 23.9506L533.382 33.2559C532.778 33.6042 532.408 34.247 532.408 34.942V53.5655C532.408 54.2608 532.778 54.9033 533.382 55.2516L549.505 64.5641C550.108 64.9112 550.851 64.9112 551.453 64.5641L567.573 55.2516C568.174 54.9033 568.545 54.2605 568.545 53.5655V34.942C568.545 34.247 568.174 33.6042 567.569 33.2559L551.451 23.9506C551.149 23.7773 550.812 23.6904 550.475 23.6904C550.139 23.6904 549.802 23.7773 549.5 23.9506" fill="white"/>
</mask>
<g mask="url(#mask0_203_38)">
<path d="M584.836 31.676L539.408 9.40869L516.115 56.9259L561.542 79.1943L584.836 31.676Z" fill="url(#paint0_linear_203_38)"/>
</g>
<mask id="mask1_203_38" style="mask-type:luminance" maskUnits="userSpaceOnUse" x="532" y="23" width="37" height="42">
<path d="M532.807 54.7481C532.962 54.9482 533.154 55.1215 533.381 55.2516L547.211 63.2398L549.515 64.5638C549.859 64.7628 550.252 64.847 550.637 64.8183C550.766 64.808 550.894 64.7839 551.02 64.7483L568.023 33.6146C567.893 33.473 567.741 33.3544 567.57 33.2549L557.014 27.159L551.434 23.9484C551.276 23.8566 551.104 23.7915 550.929 23.7456L532.807 54.7481Z" fill="white"/>
</mask>
<g mask="url(#mask1_203_38)">
<path d="M513.166 38.262L545.243 81.6766L587.665 50.334L555.586 6.92053L513.166 38.262Z" fill="url(#paint1_linear_203_38)"/>
</g>
<mask id="mask2_203_38" style="mask-type:luminance" maskUnits="userSpaceOnUse" x="533" y="23" width="36" height="42">
<path d="M550.283 23.7011C550.012 23.7279 549.748 23.8121 549.504 23.9506L533.428 33.2291L550.763 64.8029C551.004 64.7684 551.242 64.6881 551.456 64.5641L567.578 55.2515C568.075 54.963 568.416 54.4747 568.519 53.9214L550.847 23.7329C550.717 23.7072 550.587 23.6938 550.453 23.6938C550.4 23.6938 550.346 23.6965 550.292 23.7015" fill="white"/>
</mask>
<g mask="url(#mask2_203_38)">
<path d="M533.428 23.6938V64.8037H568.512V23.6938H533.428Z" fill="url(#paint2_linear_203_38)"/>
</g>
</g>
<g clip-path="url(#clip1_203_38)">
<path d="M802.762 71.6151C803.301 67.1285 803.139 66.4739 806.479 67.198L807.328 67.274C809.897 67.3897 813.256 66.8607 815.263 65.9449C819.512 63.9744 822.031 60.6814 817.842 61.5476C808.287 63.5181 807.593 60.2813 807.593 60.2813C817.687 45.304 821.909 26.2931 818.262 21.6412C808.33 8.94516 791.134 14.9493 790.847 15.108L790.754 15.1245C788.87 14.7278 786.787 14.4964 784.373 14.4633C780.048 14.3972 776.769 15.5973 774.276 17.4852C774.276 17.4852 743.604 4.84872 745.029 33.3783C745.333 39.4486 753.724 79.3352 763.742 67.2674C767.409 62.8569 770.946 59.1307 770.946 59.1307C772.699 60.2978 774.805 60.893 777.01 60.6781L777.182 60.5326C777.131 61.1041 777.154 61.6797 777.251 62.2452C774.673 65.1283 775.433 65.6341 770.275 66.6954C765.058 67.77 768.126 69.6843 770.123 70.1868C772.55 70.7952 778.164 71.6548 781.959 66.345L781.807 66.95C782.819 67.76 782.75 72.769 782.898 76.3464C783.047 79.9237 783.282 83.2664 784.013 85.2336C784.743 87.2008 785.6 92.2759 792.377 90.8542C798.041 89.6408 802.372 87.8918 802.769 71.6449" fill="black"/>
<path d="M802.762 71.6151C803.301 67.1285 803.139 66.4739 806.479 67.198L807.328 67.274C809.897 67.3897 813.256 66.8607 815.263 65.9449C819.512 63.9744 822.031 60.6814 817.842 61.5476C808.287 63.5181 807.593 60.2813 807.593 60.2813C817.687 45.304 821.909 26.2931 818.262 21.6412C808.33 8.94516 791.134 14.9493 790.847 15.108L790.754 15.1245C788.87 14.7278 786.787 14.4964 784.373 14.4633C780.048 14.3972 776.769 15.5973 774.276 17.4852C774.276 17.4852 743.604 4.84872 745.029 33.3783C745.333 39.4486 753.724 79.3352 763.742 67.2674C767.409 62.8569 770.946 59.1307 770.946 59.1307C772.699 60.2978 774.805 60.893 777.01 60.6781L777.182 60.5326C777.131 61.1041 777.154 61.6797 777.251 62.2452C774.673 65.1283 775.433 65.6341 770.275 66.6954C765.058 67.77 768.126 69.6843 770.123 70.1868C772.55 70.7952 778.164 71.6548 781.959 66.345L781.807 66.95C782.819 67.76 782.75 72.769 782.898 76.3464C783.047 79.9237 783.282 83.2664 784.013 85.2336C784.743 87.2008 785.6 92.2759 792.377 90.8542C798.041 89.6408 802.372 87.8918 802.769 71.6449" stroke="black" stroke-width="7.10513"/>
<path d="M817.813 61.5776C808.257 63.5481 807.563 60.3113 807.563 60.3113C817.657 45.334 821.879 26.323 818.236 21.6711C808.304 8.97514 791.108 14.9826 790.82 15.138L790.728 15.1545C788.627 14.7331 786.492 14.5106 784.35 14.49C780.025 14.4238 776.746 15.624 774.253 17.5119C774.253 17.5119 743.577 4.87539 745.006 33.405C745.31 39.4753 753.701 79.3619 763.719 67.2941C767.409 62.8571 770.946 59.131 770.946 59.131C772.699 60.2981 774.805 60.8932 777.01 60.6783L777.182 60.5328C777.132 61.1043 777.155 61.6799 777.251 62.2454C774.673 65.1285 775.433 65.6344 770.275 66.6957C765.058 67.7702 768.126 69.6845 770.123 70.1871C772.55 70.7954 778.164 71.655 781.96 66.3452L781.807 66.9502C782.819 67.7603 783.527 72.2171 783.408 76.2573C783.289 80.2976 783.209 83.0682 784.003 85.2371C784.796 87.406 785.59 92.2794 792.368 90.8577C798.031 89.6443 800.964 86.4935 801.377 81.2498C801.668 77.5203 802.323 78.0692 802.369 74.7365L802.898 73.1561C803.503 68.0975 802.997 66.4675 806.485 67.228L807.335 67.304C809.904 67.4197 813.266 66.8907 815.237 65.9749C819.485 64.0044 822.002 60.7113 817.813 61.5776Z" fill="#336791"/>
<path d="M782.366 64.444C782.102 73.8536 782.432 83.3293 783.351 85.604C784.271 87.8787 786.244 92.3818 793.026 90.9337C798.689 89.7203 800.752 87.3695 801.645 82.182L803.738 65.5946M774.239 17.2737C774.239 17.2737 743.544 4.72318 744.972 33.2528C745.277 39.3231 753.668 79.2097 763.686 67.1419C767.343 62.7346 770.649 59.2862 770.649 59.2862M790.817 14.9825C789.759 15.3131 807.89 8.35344 818.199 21.5222C821.836 26.1741 817.621 45.1851 807.527 60.1624" stroke="white" stroke-width="2.36727" stroke-linecap="round" stroke-linejoin="round"/>
<path d="M807.53 60.1558C807.53 60.1558 808.191 63.396 817.779 61.4188C821.968 60.5526 819.446 63.8456 815.201 65.8161C811.716 67.4362 803.9 67.8495 803.771 65.6178C803.44 59.8484 807.884 61.6007 807.563 60.1558C807.272 58.8532 805.282 57.577 803.972 54.3897C802.825 51.6125 788.235 30.2872 808.019 33.4513C808.747 33.3025 802.862 14.6056 784.347 14.3345C765.832 14.0634 766.417 37.0981 766.417 37.0981" stroke="white" stroke-width="2.36727" stroke-linecap="round" stroke-linejoin="bevel"/>
<path d="M777.185 62.133C774.606 65.0161 775.367 65.5219 770.209 66.5832C764.992 67.6578 768.06 69.5721 770.057 70.0746C772.484 70.683 778.098 71.5426 781.893 66.2295C783.05 64.6094 781.887 62.0305 780.3 61.3759C779.533 61.0585 778.508 60.6617 777.192 62.1363L777.185 62.133Z" stroke="white" stroke-width="2.36727" stroke-linejoin="round"/>
<path d="M777.017 62.0834C776.752 60.3873 777.572 58.3738 778.448 56.0131C779.764 52.4754 782.799 48.9377 780.372 37.7064C778.564 29.3416 766.42 35.964 766.42 37.098C766.42 38.2321 766.969 42.8509 766.222 48.2236C765.24 55.2394 770.685 61.1708 776.954 60.5658" stroke="white" stroke-width="2.36727" stroke-linecap="round" stroke-linejoin="round"/>
<path d="M774.127 36.9295C774.071 37.3163 774.838 38.3511 775.833 38.49C776.828 38.6289 777.678 37.8221 777.734 37.432C777.79 37.0419 777.023 36.6187 776.028 36.4798C775.033 36.3409 774.177 36.5459 774.127 36.9295Z" fill="white" stroke="white" stroke-width="0.790194"/>
<path d="M804.425 36.1392C804.478 36.526 803.715 37.5609 802.719 37.6997C801.724 37.8386 800.868 37.0319 800.818 36.6417C800.769 36.2516 801.529 35.8284 802.524 35.6895C803.52 35.5507 804.376 35.7557 804.425 36.1392Z" fill="white" stroke="white" stroke-width="0.393444"/>
<path d="M807.983 33.4579C808.148 36.4996 807.328 38.566 807.223 41.8029C807.07 46.5044 809.464 51.8869 805.857 57.2761" stroke="white" stroke-width="2.36727" stroke-linecap="round" stroke-linejoin="round"/>
</g>
<defs>
<linearGradient id="paint0_linear_203_38" x1="562.109" y1="20.5073" x2="538.817" y2="68.0213" gradientUnits="userSpaceOnUse">
<stop offset="0.3" stop-color="#3E863D"/>
<stop offset="0.5" stop-color="#55934F"/>
<stop offset="0.8" stop-color="#5AAD45"/>
</linearGradient>
<linearGradient id="paint1_linear_203_38" x1="529.397" y1="60.2182" x2="571.821" y2="28.8719" gradientUnits="userSpaceOnUse">
<stop offset="0.57" stop-color="#3E863D"/>
<stop offset="0.72" stop-color="#619857"/>
<stop offset="1" stop-color="#76AC64"/>
</linearGradient>
<linearGradient id="paint2_linear_203_38" x1="533.44" y1="44.2499" x2="568.519" y2="44.2499" gradientUnits="userSpaceOnUse">
<stop offset="0.16" stop-color="#6BBF47"/>
<stop offset="0.38" stop-color="#79B461"/>
<stop offset="0.47" stop-color="#75AC64"/>
<stop offset="0.7" stop-color="#659E5A"/>
<stop offset="0.9" stop-color="#3E863D"/>
</linearGradient>
<clipPath id="clip0_203_38">
<rect width="169.28" height="103.675" fill="white" transform="translate(488)"/>
</clipPath>
<clipPath id="clip1_203_38">
<rect width="84.64" height="84.64" fill="white" transform="translate(740 10)"/>
</clipPath>
</defs>
</svg>
