<svg width="638" height="40" viewBox="0 0 638 40" fill="none" xmlns="http://www.w3.org/2000/svg">
<g clip-path="url(#clip0_15_11)">
<path d="M99.2906 16.8557H93.5319V28.1159C93.5319 31.1183 95.4847 31.0697 99.2906 30.8833V35.4335C91.5831 36.3736 88.516 34.2139 88.516 28.1159V16.8557H84.243V11.9732H88.516V5.67257L93.5319 4.17338V11.9732H99.2906V16.8557ZM121.247 11.9732H126.263V35.4335H121.247V32.0543C119.482 34.5421 116.738 36.0454 113.116 36.0454C106.802 36.0454 101.555 30.6483 101.555 23.7034C101.555 16.7139 106.802 11.3654 113.116 11.3654C116.738 11.3654 119.482 12.8646 121.247 15.3039V11.9732ZM113.907 31.2115C118.088 31.2115 121.247 28.0672 121.247 23.7034C121.247 19.3395 118.088 16.1953 113.907 16.1953C109.726 16.1953 106.571 19.3395 106.571 23.7034C106.571 28.0672 109.726 31.2115 113.907 31.2115ZM134.621 8.4562C132.856 8.4562 131.414 6.95296 131.414 5.21876C131.418 4.79332 131.502 4.37192 131.662 3.97889C131.823 3.58591 132.06 3.22905 132.357 2.9287C132.654 2.62836 133.007 2.39042 133.395 2.22849C133.783 2.06641 134.202 1.98132 134.621 1.98132C135.041 1.98132 135.456 2.06641 135.847 2.22849C136.235 2.39056 136.586 2.62962 136.886 2.92946C137.181 3.23335 137.417 3.58991 137.58 3.97889C137.74 4.37192 137.824 4.79332 137.824 5.21876C137.824 6.95296 136.386 8.4562 134.621 8.4562ZM132.113 35.4335V11.9732H137.129V35.4335H132.113ZM142.936 35.4335V1.18311H147.952V35.4335H142.936ZM180.507 11.9732H185.802L178.51 35.4335H173.586L168.758 19.6231L163.882 35.4335H158.958L151.666 11.9732H156.961L161.466 28.1604L166.342 11.9732H171.126L175.954 28.1604L180.507 11.9732ZM192.024 8.4562C190.259 8.4562 188.821 6.95296 188.821 5.21876C188.821 4.79332 188.905 4.37192 189.065 3.97889C189.229 3.58991 189.464 3.23335 189.76 2.92946C190.059 2.62962 190.411 2.39056 190.798 2.22849C191.189 2.06641 191.605 1.98132 192.024 1.98132C192.873 1.98153 193.687 2.32238 194.288 2.92946C194.588 3.23335 194.823 3.58991 194.983 3.97889C195.147 4.37192 195.231 4.79332 195.231 5.21876C195.231 6.95296 193.789 8.4562 192.024 8.4562ZM189.516 35.4335V11.9732H194.532V35.4335H189.516ZM221.472 21.0291V35.4335H216.456V21.5478C216.456 17.9781 214.412 16.1021 211.253 16.1021C207.954 16.1021 205.354 18.0753 205.354 22.8606V35.4335H200.339V11.9732H205.354V14.9757C206.888 12.5364 209.396 11.3654 212.555 11.3654C217.754 11.3654 221.472 14.9311 221.472 21.0291ZM245.25 2.5891H250.266V35.4335H245.25V32.0543C243.485 34.5421 240.745 36.0454 237.123 36.0454C230.805 36.0454 225.558 30.6483 225.558 23.7034C225.558 16.7139 230.805 11.3654 237.123 11.3654C240.745 11.3654 243.485 12.8646 245.25 15.3039V2.5891ZM237.914 31.2115C242.091 31.2115 245.25 28.0672 245.25 23.7034C245.25 19.3395 242.091 16.1953 237.914 16.1953C233.732 16.1953 230.573 19.3395 230.573 23.7034C230.573 28.0672 233.732 31.2115 237.914 31.2115ZM254.818 23.7034C254.818 16.7139 260.066 11.3654 267.078 11.3654C271.631 11.3654 275.576 13.756 277.433 17.4189L273.116 19.9513C272.094 17.7471 269.818 16.3371 267.03 16.3371C262.945 16.3371 259.834 19.4813 259.834 23.7034C259.834 27.9254 262.945 31.0697 267.03 31.0697C269.818 31.0697 272.094 29.615 273.208 27.4594L277.529 29.9432C275.576 33.6507 271.631 36.0454 267.078 36.0454C260.066 36.0454 254.818 30.6483 254.818 23.7034ZM298.288 28.8168C298.288 33.5089 294.246 36.0454 289.23 36.0454C284.586 36.0454 281.243 33.9303 279.758 30.5551L284.075 28.0186C284.821 30.1337 286.678 31.3979 289.23 31.3979C291.463 31.3979 293.18 30.6483 293.18 28.7723C293.18 24.5948 280.688 26.9408 280.688 18.5413C280.688 14.1329 284.45 11.3654 289.186 11.3654C292.992 11.3654 296.151 13.1483 297.776 16.2439L293.551 18.6385C292.717 16.8071 291.091 15.9643 289.186 15.9643C287.373 15.9643 285.796 16.7585 285.796 18.4481C285.796 22.7188 298.288 20.1377 298.288 28.8168ZM319.701 28.8168C319.701 33.5089 315.659 36.0454 310.644 36.0454C305.999 36.0454 302.652 33.9303 301.167 30.5551L305.488 28.0186C306.231 30.1337 308.088 31.3979 310.644 31.3979C312.872 31.3979 314.589 30.6483 314.589 28.7723C314.589 24.5948 302.097 26.9408 302.097 18.5413C302.097 14.1329 305.859 11.3654 310.596 11.3654C314.405 11.3654 317.564 13.1483 319.19 16.2439L314.96 18.6385C314.126 16.8071 312.5 15.9643 310.596 15.9643C308.786 15.9643 307.205 16.7585 307.205 18.4481C307.205 22.7188 319.701 20.1377 319.701 28.8168Z" fill="black"/>
<path d="M33.2977 0C24.5 0 18.9969 4.44489 16.7965 13.3347C20.0991 8.88979 23.9489 7.22042 28.3497 8.33063C30.8576 8.96677 32.6507 10.8063 34.6395 12.8444C37.8743 16.1588 41.6202 20 49.7989 20C58.5966 20 64.0957 15.5551 66.2961 6.66532C62.9975 11.1102 59.1477 12.7755 54.7469 11.6653C52.2389 11.0332 50.4419 9.18963 48.4571 7.15559C45.2223 3.83711 41.4764 0 33.2977 0ZM16.7965 20C7.99876 20 2.49968 24.4449 0.299255 33.3347C3.5979 28.8898 7.44765 27.2245 11.8485 28.3347C14.3604 28.9668 16.1535 30.8104 18.1383 32.8444C21.373 36.1629 25.119 40 33.2977 40C42.0994 40 47.5985 35.5551 49.7989 26.6653C46.4963 31.1102 42.6465 32.7796 38.2496 31.6694C35.7377 31.0332 33.9446 29.1937 31.9559 27.1556C28.7211 23.8412 24.9752 20 16.7965 20Z" fill="#06B6D4"/>
</g>
<path d="M585.191 14.2253V39.1615H576.858V10.3203L585.191 14.2253Z" fill="#F37368"/>
<path d="M467.257 34.5313L473.507 39.7751L499.837 26.554L497.117 20.2502L467.257 34.5313ZM576.858 18.465L598.037 7.86579L594.449 1.89673L576.858 10.3204V18.465Z" fill="#F7A199"/>
<path d="M517.255 12.2728V39.1615H509.269V0.836792L517.255 12.2728ZM467.257 34.5313L473.507 39.7751L485.543 10.7666L481.666 0.836792L467.257 34.5313Z" fill="#F37368"/>
<path d="M481.666 0.836792H489.883L505.102 39.1615H496.654L481.666 0.836792ZM518.47 0.836792L536.004 27.0002V39.1615L509.269 0.836792H518.47ZM551.049 0.836792H559.324V39.1615H551.049V0.836792ZM576.858 7.86577H564.127V0.836792H593.813L598.037 7.86577H585.191H576.858Z" fill="#F04939"/>
<path d="M622.515 24.6014V39.1615H614.298V24.6014" fill="#F7A199"/>
<path d="M628.186 0.836792L614.298 24.6014H622.515L636.924 0.836792H628.186Z" fill="#F04939"/>
<path d="M614.298 24.6014L599.947 0.836792H608.974L618.638 17.1262L614.298 24.6014Z" fill="#F37368"/>
<path d="M436.414 5.29968C436.414 10.5993 439.828 13.7791 446.657 15.4527L453.89 17.0704C460.371 18.5209 464.306 22.0911 464.306 27.8928C464.364 30.4032 463.496 32.8578 461.934 34.866C461.934 29.0643 458.809 25.9403 451.344 24.0436L444.226 22.4816C438.497 21.2544 434.099 18.2977 434.099 11.994C434.099 9.59517 434.91 7.19639 436.414 5.29968Z" fill="#F04939"/>
<path d="M536.004 25.0477V0.836792H543.989V39.1615H536.004V25.0477Z" fill="#F37368"/>
<path d="M457.478 26.4424C460.545 28.3391 461.934 31.0168 461.934 34.866C459.33 38.0458 454.874 39.7751 449.608 39.7751C440.754 39.7751 434.447 35.5354 433.116 28.2275H441.622C442.722 31.5746 445.615 33.1366 449.55 33.1366C454.237 33.1924 457.42 30.7379 457.478 26.4424ZM436.414 5.24385C438.902 2.11985 443.185 0.223145 448.393 0.223145C457.478 0.223145 462.686 4.85335 464.017 11.3245H455.8C454.874 8.75834 452.617 6.75006 448.508 6.75006C444.053 6.80584 441.044 9.26041 440.87 13.1654C437.888 11.5801 436.298 8.47941 436.414 5.24385Z" fill="#F37368"/>
<defs>
<clipPath id="clip0_15_11">
<rect width="320" height="40" fill="white"/>
</clipPath>
</defs>
</svg>
