<svg width="122" height="74" viewBox="0 0 122 74" fill="none" xmlns="http://www.w3.org/2000/svg">
<path d="M28.6925 19.1333H51.6274V20.9562H30.7948V34.6759H50.385V36.4988H30.7948V51.5617H51.8663V53.3845H28.6925V19.1333ZM53.6819 19.1333H56.1188L66.9173 34.1962L77.9547 19.1333L92.9674 0L68.3029 35.7792L81.0127 53.3845H78.4803L66.9173 37.3623L55.3065 53.3845H52.8219L65.6272 35.7792L53.6819 19.1333ZM81.9205 20.9562V19.1333H108.057V20.9562H96.0159V53.3845H93.9135V20.9562H81.9205ZM0 19.1333H2.62795L38.8659 73.3599L23.8905 53.3845L2.19793 21.7237L2.10236 53.3845H0V19.1333ZM107.845 51.0115C107.415 51.0115 107.093 50.6787 107.093 50.2487C107.093 49.8186 107.415 49.4858 107.845 49.4858C108.28 49.4858 108.597 49.8186 108.597 50.2487C108.597 50.6787 108.28 51.0115 107.845 51.0115ZM109.911 49.0045H111.036C111.051 49.6138 111.496 50.0234 112.15 50.0234C112.882 50.0234 113.296 49.583 113.296 48.7587V43.5362H114.441V48.7638C114.441 50.2487 113.582 51.1037 112.161 51.1037C110.826 51.1037 109.911 50.2743 109.911 49.0045ZM115.939 48.9379H117.075C117.172 49.6394 117.857 50.0848 118.844 50.0848C119.764 50.0848 120.439 49.6086 120.439 48.9533C120.439 48.3901 120.01 48.0521 119.033 47.8217L118.082 47.5913C116.747 47.279 116.139 46.6339 116.139 45.5484C116.139 44.2325 117.213 43.357 118.823 43.357C120.322 43.357 121.416 44.2325 121.482 45.4767H120.368C120.26 44.7958 119.667 44.3708 118.808 44.3708C117.903 44.3708 117.3 44.806 117.3 45.4716C117.3 45.999 117.688 46.3011 118.65 46.5263L119.463 46.726C120.976 47.0793 121.6 47.6937 121.6 48.8048C121.6 50.2179 120.506 51.1037 118.757 51.1037C117.121 51.1037 116.021 50.2589 115.939 48.9379Z" fill="black"/>
</svg>
