<svg width="40" height="40" viewBox="0 0 40 40" fill="none" xmlns="http://www.w3.org/2000/svg">
<g clip-path="url(#clip0_201_2)">
<path d="M20 0C8.95431 0 0 8.95428 0 20C0 31.0458 8.95435 40 20 40C31.0458 40 40 31.0457 40 20C40 8.95428 31.0458 0 20 0ZM4.2975 20.2085L19.7915 35.7025C11.2835 35.5916 4.40835 28.7165 4.2975 20.2085ZM23.515 35.3099L4.69011 16.485C6.28638 9.50364 12.5347 4.29487 20 4.29487C25.2184 4.29487 29.8414 6.84064 32.6973 10.7573L30.5228 12.6759C28.2062 9.35371 24.3573 7.17948 20 7.17948C14.4523 7.17948 9.72805 10.7033 7.94237 15.6346L24.3654 32.0577C28.3537 30.6134 31.4211 27.2467 32.4484 23.0769H25.641V20H32.8205V20H35.7051V20C35.7051 27.4653 30.4964 33.7136 23.515 35.3099Z" fill="#744C9E"/>
</g>
<defs>
<clipPath id="clip0_201_2">
<rect width="40" height="40" fill="white"/>
</clipPath>
</defs>
</svg>
