<svg width="43" height="39" viewBox="0 0 43 39" fill="none" xmlns="http://www.w3.org/2000/svg">
<path d="M43 19.5045C43 16.6033 39.4327 13.854 33.9635 12.149C35.2256 6.47173 34.6647 1.95491 32.193 0.508812C31.6233 0.169604 30.9572 0.00892639 30.2297 0.00892639V1.99954C30.6329 1.99954 30.9572 2.07988 31.2289 2.23163C32.4209 2.9279 32.938 5.57908 32.5349 8.98901C32.4384 9.82811 32.2807 10.7118 32.0879 11.6134C30.37 11.1849 28.4943 10.8547 26.5222 10.6404C25.339 8.98901 24.1119 7.48936 22.8761 6.17716C25.7334 3.47242 28.4154 1.99062 30.2385 1.99062V0C27.8282 0 24.6728 1.7496 21.4825 4.78462C18.2921 1.76745 15.1368 0.0357062 12.7265 0.0357062V2.02632C14.5408 2.02632 17.2316 3.4992 20.0889 6.18608C18.8618 7.49828 17.6347 8.98901 16.469 10.6404C14.4882 10.8547 12.6125 11.1849 10.8946 11.6223C10.693 10.7297 10.544 9.86381 10.4388 9.03365C10.0269 5.62371 10.5353 2.97253 11.7185 2.26734C11.9815 2.10666 12.3233 2.03525 12.7265 2.03525V0.0446326C11.9902 0.0446326 11.3241 0.20531 10.7456 0.544518C8.28271 1.99062 7.73053 6.49851 9.00143 12.1579C3.54973 13.8718 0 16.6123 0 19.5045C0 22.4056 3.56726 25.155 9.03649 26.8599C7.77436 32.5372 8.3353 37.054 10.807 38.5001C11.3767 38.8393 12.0428 39 12.779 39C15.1894 39 18.3447 37.2504 21.5351 34.2154C24.7254 37.2325 27.8808 38.9643 30.2911 38.9643C31.0273 38.9643 31.6934 38.8036 32.2719 38.4644C34.7348 37.0183 35.287 32.5104 34.0161 26.851C39.4503 25.146 43 22.3967 43 19.5045V19.5045ZM31.5883 13.5505C31.264 14.702 30.8608 15.8892 30.405 17.0764C30.0457 16.3623 29.6688 15.6482 29.2568 14.9341C28.8536 14.22 28.4242 13.5237 27.9947 12.8453C29.2393 13.0327 30.4401 13.2648 31.5883 13.5505ZM27.574 23.0572C26.8903 24.2623 26.1892 25.4049 25.4617 26.4672C24.1557 26.5832 22.8322 26.6457 21.5 26.6457C20.1765 26.6457 18.853 26.5832 17.5559 26.4761C16.8284 25.4138 16.1184 24.2802 15.4348 23.084C14.7687 21.9146 14.1639 20.7274 13.6117 19.5312C14.1551 18.3351 14.7687 17.1389 15.426 15.9696C16.1097 14.7645 16.8108 13.6219 17.5383 12.5596C18.8443 12.4436 20.1678 12.3811 21.5 12.3811C22.8235 12.3811 24.147 12.4436 25.4441 12.5507C26.1716 13.613 26.8816 14.7466 27.5652 15.9428C28.2314 17.1122 28.8361 18.2994 29.3883 19.4955C28.8361 20.6917 28.2313 21.8878 27.574 23.0572ZM30.405 21.8968C30.8783 23.0929 31.2815 24.2891 31.6146 25.4495C30.4664 25.7352 29.2568 25.9762 28.0035 26.1637C28.4329 25.4763 28.8624 24.7711 29.2656 24.0481C29.6688 23.3339 30.0457 22.6109 30.405 21.8968ZM21.5175 31.4214C20.7024 30.5644 19.8873 29.6093 19.0809 28.5649C19.8698 28.6006 20.6761 28.6274 21.4912 28.6274C22.3151 28.6274 23.1302 28.6095 23.9278 28.5649C23.139 29.6093 22.3239 30.5644 21.5175 31.4214ZM14.9965 26.1637C13.7519 25.9762 12.5512 25.7441 11.403 25.4585C11.7273 24.3069 12.1305 23.1197 12.5862 21.9325C12.9456 22.6466 13.3225 23.3607 13.7344 24.0748C14.1464 24.789 14.5671 25.4852 14.9965 26.1637ZM21.4737 7.58755C22.2888 8.44449 23.104 9.39963 23.9103 10.444C23.1215 10.4083 22.3151 10.3816 21.5 10.3816C20.6761 10.3816 19.861 10.3994 19.0634 10.444C19.8522 9.39963 20.6673 8.44449 21.4737 7.58755ZM14.9878 12.8453C14.5583 13.5326 14.1288 14.2378 13.7256 14.9609C13.3225 15.675 12.9456 16.3891 12.5862 17.1032C12.1129 15.9071 11.7097 14.7109 11.3767 13.5505C12.5249 13.2737 13.7344 13.0327 14.9878 12.8453V12.8453ZM7.05565 24.0213C3.95292 22.6734 1.94578 20.9059 1.94578 19.5045C1.94578 18.103 3.95292 16.3266 7.05565 14.9876C7.80942 14.6574 8.63331 14.3628 9.48349 14.0861C9.98308 15.8357 10.6404 17.6567 11.4556 19.5223C10.6492 21.379 10.0006 23.1911 9.50979 24.9318C8.64207 24.6551 7.81818 24.3516 7.05565 24.0213ZM11.7711 36.7773C10.5791 36.081 10.062 33.4298 10.4651 30.0199C10.5616 29.1808 10.7193 28.2971 10.9122 27.3955C12.63 27.824 14.5057 28.1543 16.4778 28.3685C17.661 30.0199 18.8881 31.5196 20.1239 32.8318C17.2666 35.5365 14.5846 37.0183 12.7615 37.0183C12.3671 37.0094 12.034 36.929 11.7711 36.7773V36.7773ZM32.5612 29.9753C32.9731 33.3852 32.4647 36.0364 31.2815 36.7416C31.0185 36.9023 30.6767 36.9737 30.2735 36.9737C28.4592 36.9737 25.7684 35.5008 22.9111 32.8139C24.1382 31.5017 25.3653 30.011 26.531 28.3596C28.5118 28.1453 30.3875 27.8151 32.1054 27.3777C32.307 28.2792 32.4647 29.1451 32.5612 29.9753V29.9753ZM35.9356 24.0213C35.1818 24.3516 34.3579 24.6461 33.5077 24.9229C33.0082 23.1733 32.3508 21.3523 31.5357 19.4866C32.342 17.6299 32.9906 15.8178 33.4815 14.0771C34.3492 14.3539 35.1731 14.6574 35.9444 14.9876C39.0471 16.3355 41.0542 18.103 41.0542 19.5045C41.0455 20.9059 39.0383 22.6823 35.9356 24.0213V24.0213Z" fill="#61DAFB"/>
<path d="M21.4912 23.5839C23.7033 23.5839 25.4967 21.7575 25.4967 19.5045C25.4967 17.2515 23.7033 15.425 21.4912 15.425C19.279 15.425 17.4857 17.2515 17.4857 19.5045C17.4857 21.7575 19.279 23.5839 21.4912 23.5839Z" fill="#61DAFB"/>
</svg>
