<svg width="201" height="40" viewBox="0 0 201 40" fill="none" xmlns="http://www.w3.org/2000/svg">
<path d="M164.91 15.669V34.3711H159.112V12.7402L164.91 15.669Z" fill="#F37368"/>
<path d="M82.8559 30.8983L87.2041 34.8312L105.523 24.9153L103.631 20.1875L82.8559 30.8983ZM159.111 18.8486L173.847 10.8992L171.35 6.42236L159.111 12.7401V18.8486Z" fill="#F7A199"/>
<path d="M117.642 14.2045V34.371H112.086V5.62744L117.642 14.2045ZM82.8559 30.8983L87.2041 34.8312L95.5785 13.0748L92.881 5.62744L82.8559 30.8983Z" fill="#F37368"/>
<path d="M92.8817 5.62744H98.5988L109.188 34.371H103.309L92.8817 5.62744ZM118.488 5.62744L130.687 25.25V34.371L112.086 5.62744H118.488ZM141.155 5.62744H146.913V34.371H141.155V5.62744ZM159.112 10.8992H150.254V5.62744H170.908L173.847 10.8992H164.909H159.112Z" fill="#F04939"/>
<path d="M190.878 23.4512V34.3712H185.161V23.4512" fill="#F7A199"/>
<path d="M194.824 5.62744L185.161 23.4509H190.878L200.903 5.62744H194.824Z" fill="#F04939"/>
<path d="M185.161 23.4509L175.176 5.62744H181.457L188.181 17.8445L185.161 23.4509Z" fill="#F37368"/>
<path d="M61.3976 8.97485C61.3976 12.9496 63.7731 15.3344 68.5239 16.5896L73.5566 17.8029C78.0659 18.8907 80.8036 21.5684 80.8036 25.9197C80.8439 27.8025 80.24 29.6434 79.1529 31.1496C79.1529 26.7983 76.9788 24.4554 71.7851 23.0328L66.8329 21.8613C62.847 20.9409 59.7872 18.7234 59.7872 13.9956C59.7872 12.1965 60.3508 10.3974 61.3976 8.97485Z" fill="#F04939"/>
<path d="M130.687 23.7856V5.62744H136.243V34.371H130.687V23.7856Z" fill="#F37368"/>
<path d="M76.0526 24.8317C78.1865 26.2542 79.1527 28.2625 79.1527 31.1494C77.341 33.5342 74.2408 34.8312 70.5771 34.8312C64.4171 34.8312 60.0286 31.6514 59.1025 26.1705H65.021C65.7859 28.6809 67.799 29.8524 70.5368 29.8524C73.798 29.8942 76.0123 28.0533 76.0526 24.8317ZM61.3974 8.93276C63.1287 6.58977 66.108 5.16724 69.7316 5.16724C76.0526 5.16724 79.6761 8.63989 80.6022 13.4932H74.885C74.2408 11.5686 72.6706 10.0624 69.8121 10.0624C66.712 10.1043 64.6184 11.9452 64.4976 14.8739C62.4229 13.6849 61.3169 11.3594 61.3974 8.93276Z" fill="#F37368"/>
<path d="M20 0C8.95431 0 0 8.95428 0 20C0 31.0458 8.95435 40 20 40C31.0458 40 40 31.0457 40 20C40 8.95428 31.0458 0 20 0ZM4.2975 20.2085L19.7915 35.7025C11.2835 35.5916 4.40835 28.7165 4.2975 20.2085ZM23.515 35.3099L4.69011 16.485C6.28638 9.50364 12.5347 4.29487 20 4.29487C25.2184 4.29487 29.8414 6.84064 32.6973 10.7573L30.5228 12.6759C28.2062 9.35371 24.3573 7.17948 20 7.17948C14.4523 7.17948 9.72805 10.7033 7.94237 15.6346L24.3654 32.0577C28.3537 30.6134 31.4211 27.2467 32.4484 23.0769H25.641V20H32.8205V20H35.7051V20C35.7051 27.4653 30.4964 33.7136 23.515 35.3099Z" fill="#744C9E"/>
</svg>
