<svg width="164" height="40" viewBox="0 0 164 40" fill="none" xmlns="http://www.w3.org/2000/svg">
<path d="M124 0H164V40H124V0Z" fill="#F7DF1E"/>
<path d="M134.517 33.4268L137.579 31.5743C138.169 32.6214 138.706 33.5073 139.995 33.5073C141.23 33.5073 142.009 33.0241 142.009 31.1447V18.3638H145.768V31.1979C145.768 35.0912 143.486 36.8633 140.156 36.8633C137.149 36.8633 135.403 35.3059 134.517 33.4265" fill="black"/>
<path d="M147.81 33.0241L150.87 31.252C151.676 32.5678 152.723 33.5343 154.576 33.5343C156.133 33.5343 157.126 32.7556 157.126 31.6816C157.126 30.3927 156.106 29.9362 154.388 29.1847L153.448 28.7816C150.736 27.6273 148.937 26.1774 148.937 23.1164C148.937 20.2971 151.085 18.1489 154.442 18.1489C156.831 18.1489 158.55 18.9814 159.785 21.1563L156.858 23.0357C156.213 21.8812 155.516 21.4249 154.442 21.4249C153.341 21.4249 152.643 22.123 152.643 23.0357C152.643 24.1635 153.341 24.62 154.952 25.3182L155.891 25.7209C159.086 27.0904 160.886 28.4864 160.886 31.6278C160.886 35.0112 158.227 36.8637 154.656 36.8637C151.166 36.8637 148.91 35.1991 147.81 33.0241" fill="black"/>
<path d="M96 7.86084L93.4491 36.7826L81.9829 39.9999L70.5482 36.7872L68 7.86084H96Z" fill="#264DE4"/>
<path d="M91.2653 34.9418L93.4452 10.2268H82V37.5416L91.2653 34.9418Z" fill="#2965F1"/>
<path d="M73.8417 20.9531L74.1559 24.5008H82.0001V20.9531H73.8417Z" fill="#EBEBEB"/>
<path d="M81.9998 13.7744H81.9877H73.2102L73.5289 17.3221H81.9998V13.7744Z" fill="#EBEBEB"/>
<path d="M81.9997 33.8577V30.1666L81.9844 30.1707L78.0805 29.1039L77.8309 26.2744H75.9339H74.3121L74.8032 31.8448L81.9836 33.8622L81.9997 33.8577Z" fill="#EBEBEB"/>
<path d="M74.5895 0H78.835V1.79688H76.3649V3.59375H78.835V5.39063H74.5895V0Z" fill="black"/>
<path d="M79.6842 0H83.9297V1.5625H81.4596V1.875H83.9297V5.46875H79.6842V3.82812H82.1543V3.51562H79.6842V0Z" fill="black"/>
<path d="M84.7789 0H89.0245V1.5625H86.5543V1.875H89.0245V5.46875H84.7789V3.82812H87.2491V3.51562H84.7789V0Z" fill="black"/>
<path d="M86.3043 24.5027L85.8974 29.1038L81.9879 30.1718V33.8627L89.1739 31.847L89.2266 31.2476L90.0504 21.9077L90.1359 20.955L90.7687 13.7744H81.9879V17.3221H86.9272L86.6082 20.955H81.9879V24.5027H86.3043Z" fill="white"/>
<g clip-path="url(#clip0_19_124)">
<path d="M8.46735 0H10.2702V1.78125H11.9195V0H13.7224V5.39406H11.9195V3.58781H10.2703V5.39406H8.46742L8.46735 0Z" fill="black"/>
<path d="M16.0933 1.78875H14.5061V0H19.4842V1.78875H17.8963V5.39406H16.0934L16.0933 1.78875Z" fill="black"/>
<path d="M20.2743 0H22.1542L23.3106 1.89531L24.4659 0H26.3465V5.39406H24.551V2.72047L23.3106 4.63836H23.2796L22.0384 2.72047V5.39406H20.2743V0V0Z" fill="black"/>
<path d="M27.2438 0H29.0472V3.61109H31.5826V5.39406H27.2438V0Z" fill="black"/>
<path d="M8.36912 36.7755L5.78217 7.75757H34.1955L31.6054 36.7777L19.9819 40L8.36912 36.7755Z" fill="#E34E26"/>
<path d="M19.9888 10.1294V37.535L29.3878 34.9297L31.6023 10.1294H19.9888Z" fill="#EF662A"/>
<path d="M11.0751 13.6887L12.0344 24.4513H24.37L23.956 29.0676L19.9843 30.1414L16.0201 29.069L15.755 26.1051H12.1826L12.6934 31.8188L19.9834 33.8436L27.2827 31.8188L28.2612 20.8928H15.2895L14.9639 17.2481H28.5728H28.5838L28.9026 13.6887H11.0751Z" fill="white"/>
<path d="M19.9888 13.6887H11.0751L12.0344 24.4513H19.9888V20.8928H15.2895L14.9639 17.2481H19.9888V13.6887Z" fill="#EBEBEB"/>
<path d="M19.9888 30.1397L19.9843 30.1413L16.0201 29.069L15.755 26.105H12.1826L12.6934 31.8187L19.9833 33.8435L19.9888 33.8419V30.1397Z" fill="#EBEBEB"/>
</g>
<defs>
<clipPath id="clip0_19_124">
<rect width="40" height="40" fill="white"/>
</clipPath>
</defs>
</svg>
