<svg width="40" height="33" viewBox="0 0 40 33" fill="none" xmlns="http://www.w3.org/2000/svg">
<path d="M40 3.84833C38.5283 4.50167 36.9467 4.94167 35.2867 5.14C36.9817 4.125 38.2833 2.51667 38.895 0.6C37.31 1.54 35.5533 2.22333 33.6833 2.59167C32.1883 0.996667 30.0533 0 27.6933 0C22.395 0 18.5017 4.94333 19.6983 10.075C12.88 9.73333 6.83333 6.46667 2.785 1.50167C0.635 5.19 1.67 10.015 5.32333 12.4583C3.98 12.415 2.71333 12.0467 1.60833 11.4317C1.51833 15.2333 4.24333 18.79 8.19 19.5817C7.035 19.895 5.77 19.9683 4.48333 19.7217C5.52667 22.9817 8.55667 25.3533 12.15 25.42C8.7 28.125 4.35333 29.3333 0 28.82C3.63167 31.1483 7.94667 32.5067 12.58 32.5067C27.8167 32.5067 36.425 19.6383 35.905 8.09667C37.5083 6.93833 38.9 5.49333 40 3.84833Z" fill="black"/>
</svg>
